<?xml version="1.0" encoding="UTF-8" standalone="no"?>
<!-- Created with Inkscape (http://www.inkscape.org/) -->

<svg
   width="210mm"
   height="297mm"
   viewBox="0 0 210 297"
   version="1.1"
   id="svg18731"
   inkscape:version="1.1.2 (0a00cf5339, 2022-02-04)"
   sodipodi:docname="swimmers.svg"
   inkscape:export-filename="/home/mjohnsrud/repos/active_matter_notes/chapters/Figures/introduction/swimmers.png"
   inkscape:export-xdpi="1000"
   inkscape:export-ydpi="1000"
   xmlns:inkscape="http://www.inkscape.org/namespaces/inkscape"
   xmlns:sodipodi="http://sodipodi.sourceforge.net/DTD/sodipodi-0.dtd"
   xmlns:xlink="http://www.w3.org/1999/xlink"
   xmlns="http://www.w3.org/2000/svg"
   xmlns:svg="http://www.w3.org/2000/svg">
  <sodipodi:namedview
     id="namedview18733"
     pagecolor="#ffffff"
     bordercolor="#666666"
     borderopacity="1.0"
     inkscape:pageshadow="2"
     inkscape:pageopacity="0.0"
     inkscape:pagecheckerboard="0"
     inkscape:document-units="mm"
     showgrid="false"
     inkscape:zoom="2.1997092"
     inkscape:cx="572.57568"
     inkscape:cy="233.43995"
     inkscape:window-width="1920"
     inkscape:window-height="1136"
     inkscape:window-x="0"
     inkscape:window-y="0"
     inkscape:window-maximized="1"
     inkscape:current-layer="layer1" />
  <defs
     id="defs18728">
    <marker
       style="overflow:visible;"
       id="marker34816"
       refX="0.0"
       refY="0.0"
       orient="auto"
       inkscape:stockid="Arrow1Mend"
       inkscape:isstock="true">
      <path
         transform="scale(0.4) rotate(180) translate(10,0)"
         style="fill-rule:evenodd;fill:context-stroke;stroke:context-stroke;stroke-width:1.0pt;"
         d="M 0.0,0.0 L 5.0,-5.0 L -12.5,0.0 L 5.0,5.0 L 0.0,0.0 z "
         id="path34814" />
    </marker>
    <marker
       style="overflow:visible;"
       id="Arrow1Mend"
       refX="0.0"
       refY="0.0"
       orient="auto"
       inkscape:stockid="Arrow1Mend"
       inkscape:isstock="true">
      <path
         transform="scale(0.4) rotate(180) translate(10,0)"
         style="fill-rule:evenodd;fill:context-stroke;stroke:context-stroke;stroke-width:1.0pt;"
         d="M 0.0,0.0 L 5.0,-5.0 L -12.5,0.0 L 5.0,5.0 L 0.0,0.0 z "
         id="path1174" />
    </marker>
    <marker
       style="overflow:visible;"
       id="marker33454"
       refX="0.0"
       refY="0.0"
       orient="auto"
       inkscape:stockid="Arrow1Lend"
       inkscape:isstock="true">
      <path
         transform="scale(0.8) rotate(180) translate(12.5,0)"
         style="fill-rule:evenodd;fill:context-stroke;stroke:context-stroke;stroke-width:1.0pt;"
         d="M 0.0,0.0 L 5.0,-5.0 L -12.5,0.0 L 5.0,5.0 L 0.0,0.0 z "
         id="path33452" />
    </marker>
    <marker
       style="overflow:visible;"
       id="Arrow2Mend"
       refX="0.0"
       refY="0.0"
       orient="auto"
       inkscape:stockid="Arrow2Mend"
       inkscape:isstock="true">
      <path
         transform="scale(0.6) rotate(180) translate(0,0)"
         d="M 8.7185878,4.0337352 L -2.2072895,0.016013256 L 8.7185884,-4.0017078 C 6.9730900,-1.6296469 6.9831476,1.6157441 8.7185878,4.0337352 z "
         style="stroke:context-stroke;fill-rule:evenodd;fill:context-stroke;stroke-width:0.62500000;stroke-linejoin:round;"
         id="path1192" />
    </marker>
    <marker
       style="overflow:visible;"
       id="Arrow1Lend"
       refX="0.0"
       refY="0.0"
       orient="auto"
       inkscape:stockid="Arrow1Lend"
       inkscape:isstock="true">
      <path
         transform="scale(0.8) rotate(180) translate(12.5,0)"
         style="fill-rule:evenodd;fill:context-stroke;stroke:context-stroke;stroke-width:1.0pt;"
         d="M 0.0,0.0 L 5.0,-5.0 L -12.5,0.0 L 5.0,5.0 L 0.0,0.0 z "
         id="path1168" />
    </marker>
    <marker
       style="overflow:visible"
       id="Arrow1Mend-0"
       refX="0"
       refY="0"
       orient="auto"
       inkscape:stockid="Arrow1Mend"
       inkscape:isstock="true">
      <path
         transform="matrix(-0.4,0,0,-0.4,-4,0)"
         style="fill:context-stroke;fill-rule:evenodd;stroke:context-stroke;stroke-width:1pt"
         d="M 0,0 5,-5 -12.5,0 5,5 Z"
         id="path1174-5" />
    </marker>
    <marker
       style="overflow:visible"
       id="Arrow1Mend-0-2"
       refX="0"
       refY="0"
       orient="auto"
       inkscape:stockid="Arrow1Mend"
       inkscape:isstock="true">
      <path
         transform="matrix(-0.4,0,0,-0.4,-4,0)"
         style="fill:context-stroke;fill-rule:evenodd;stroke:context-stroke;stroke-width:1pt"
         d="M 0,0 5,-5 -12.5,0 5,5 Z"
         id="path1174-5-0" />
    </marker>
    <g
       id="g3977">
      <symbol
         overflow="visible"
         id="symbol9102">
        <path
           style="stroke:none;"
           d=""
           id="path7972" />
      </symbol>
      <symbol
         overflow="visible"
         id="symbol3535">
        <path
           style="stroke:none;"
           d="M 2.71875 -4.453125 C 2.71875 -4.71875 2.546875 -4.984375 2.1875 -4.984375 C 1.984375 -4.984375 1.84375 -4.890625 1.78125 -4.828125 C 1.78125 -4.8125 1.765625 -4.796875 1.75 -4.796875 C 1.734375 -4.796875 1.734375 -4.9375 1.734375 -4.96875 C 1.734375 -5.296875 1.796875 -6.015625 2.4375 -6.625 C 2.546875 -6.75 2.546875 -6.765625 2.546875 -6.796875 C 2.546875 -6.875 2.5 -6.90625 2.453125 -6.90625 C 2.34375 -6.90625 1.515625 -6.15625 1.515625 -4.96875 C 1.515625 -4.375 1.75 -3.921875 2.1875 -3.921875 C 2.53125 -3.921875 2.71875 -4.203125 2.71875 -4.453125 Z M 4.640625 -4.453125 C 4.640625 -4.71875 4.46875 -4.984375 4.109375 -4.984375 C 3.921875 -4.984375 3.78125 -4.890625 3.71875 -4.828125 C 3.703125 -4.8125 3.703125 -4.796875 3.6875 -4.796875 C 3.671875 -4.796875 3.671875 -4.9375 3.671875 -4.96875 C 3.671875 -5.296875 3.734375 -6.015625 4.359375 -6.625 C 4.484375 -6.75 4.484375 -6.765625 4.484375 -6.796875 C 4.484375 -6.875 4.4375 -6.90625 4.390625 -6.90625 C 4.28125 -6.90625 3.453125 -6.15625 3.453125 -4.96875 C 3.453125 -4.375 3.6875 -3.921875 4.109375 -3.921875 C 4.46875 -3.921875 4.640625 -4.203125 4.640625 -4.453125 Z M 4.640625 -4.453125 "
           id="path4986" />
      </symbol>
      <symbol
         overflow="visible"
         id="symbol9687">
        <path
           style="stroke:none;"
           d="M 2.265625 -3.15625 L 3.953125 -3.15625 C 5.140625 -3.15625 6.21875 -3.953125 6.21875 -4.953125 C 6.21875 -5.9375 5.234375 -6.8125 3.875 -6.8125 L 0.34375 -6.8125 L 0.34375 -6.5 L 0.59375 -6.5 C 1.359375 -6.5 1.375 -6.390625 1.375 -6.03125 L 1.375 -0.78125 C 1.375 -0.421875 1.359375 -0.3125 0.59375 -0.3125 L 0.34375 -0.3125 L 0.34375 0 C 0.703125 -0.03125 1.4375 -0.03125 1.8125 -0.03125 C 2.1875 -0.03125 2.9375 -0.03125 3.296875 0 L 3.296875 -0.3125 L 3.046875 -0.3125 C 2.28125 -0.3125 2.265625 -0.421875 2.265625 -0.78125 Z M 2.234375 -3.40625 L 2.234375 -6.09375 C 2.234375 -6.4375 2.25 -6.5 2.71875 -6.5 L 3.609375 -6.5 C 5.1875 -6.5 5.1875 -5.4375 5.1875 -4.953125 C 5.1875 -4.484375 5.1875 -3.40625 3.609375 -3.40625 Z M 2.234375 -3.40625 "
           id="path8711" />
      </symbol>
      <symbol
         overflow="visible"
         id="symbol4094">
        <path
           style="stroke:none;"
           d="M 3.890625 -0.78125 L 3.890625 0.109375 L 5.328125 0 L 5.328125 -0.3125 C 4.640625 -0.3125 4.5625 -0.375 4.5625 -0.875 L 4.5625 -4.40625 L 3.09375 -4.296875 L 3.09375 -3.984375 C 3.78125 -3.984375 3.875 -3.921875 3.875 -3.421875 L 3.875 -1.65625 C 3.875 -0.78125 3.390625 -0.109375 2.65625 -0.109375 C 1.828125 -0.109375 1.78125 -0.578125 1.78125 -1.09375 L 1.78125 -4.40625 L 0.3125 -4.296875 L 0.3125 -3.984375 C 1.09375 -3.984375 1.09375 -3.953125 1.09375 -3.078125 L 1.09375 -1.578125 C 1.09375 -0.796875 1.09375 0.109375 2.609375 0.109375 C 3.171875 0.109375 3.609375 -0.171875 3.890625 -0.78125 Z M 3.890625 -0.78125 "
           id="path8253" />
      </symbol>
      <symbol
         overflow="visible"
         id="symbol1149">
        <path
           style="stroke:none;"
           d="M 2.078125 -1.9375 C 2.296875 -1.890625 3.109375 -1.734375 3.109375 -1.015625 C 3.109375 -0.515625 2.765625 -0.109375 1.984375 -0.109375 C 1.140625 -0.109375 0.78125 -0.671875 0.59375 -1.53125 C 0.5625 -1.65625 0.5625 -1.6875 0.453125 -1.6875 C 0.328125 -1.6875 0.328125 -1.625 0.328125 -1.453125 L 0.328125 -0.125 C 0.328125 0.046875 0.328125 0.109375 0.4375 0.109375 C 0.484375 0.109375 0.5 0.09375 0.6875 -0.09375 C 0.703125 -0.109375 0.703125 -0.125 0.890625 -0.3125 C 1.328125 0.09375 1.78125 0.109375 1.984375 0.109375 C 3.125 0.109375 3.59375 -0.5625 3.59375 -1.28125 C 3.59375 -1.796875 3.296875 -2.109375 3.171875 -2.21875 C 2.84375 -2.546875 2.453125 -2.625 2.03125 -2.703125 C 1.46875 -2.8125 0.8125 -2.9375 0.8125 -3.515625 C 0.8125 -3.875 1.0625 -4.28125 1.921875 -4.28125 C 3.015625 -4.28125 3.078125 -3.375 3.09375 -3.078125 C 3.09375 -2.984375 3.1875 -2.984375 3.203125 -2.984375 C 3.34375 -2.984375 3.34375 -3.03125 3.34375 -3.21875 L 3.34375 -4.234375 C 3.34375 -4.390625 3.34375 -4.46875 3.234375 -4.46875 C 3.1875 -4.46875 3.15625 -4.46875 3.03125 -4.34375 C 3 -4.3125 2.90625 -4.21875 2.859375 -4.1875 C 2.484375 -4.46875 2.078125 -4.46875 1.921875 -4.46875 C 0.703125 -4.46875 0.328125 -3.796875 0.328125 -3.234375 C 0.328125 -2.890625 0.484375 -2.609375 0.75 -2.390625 C 1.078125 -2.140625 1.359375 -2.078125 2.078125 -1.9375 Z M 2.078125 -1.9375 "
           id="path354" />
      </symbol>
      <symbol
         overflow="visible"
         id="symbol2878">
        <path
           style="stroke:none;"
           d="M 1.09375 -0.75 C 1.09375 -0.3125 0.984375 -0.3125 0.3125 -0.3125 L 0.3125 0 C 0.671875 -0.015625 1.171875 -0.03125 1.453125 -0.03125 C 1.703125 -0.03125 2.21875 -0.015625 2.5625 0 L 2.5625 -0.3125 C 1.890625 -0.3125 1.78125 -0.3125 1.78125 -0.75 L 1.78125 -2.59375 C 1.78125 -3.625 2.5 -4.1875 3.125 -4.1875 C 3.765625 -4.1875 3.875 -3.65625 3.875 -3.078125 L 3.875 -0.75 C 3.875 -0.3125 3.765625 -0.3125 3.09375 -0.3125 L 3.09375 0 C 3.4375 -0.015625 3.953125 -0.03125 4.21875 -0.03125 C 4.46875 -0.03125 5 -0.015625 5.328125 0 L 5.328125 -0.3125 C 4.8125 -0.3125 4.5625 -0.3125 4.5625 -0.609375 L 4.5625 -2.515625 C 4.5625 -3.375 4.5625 -3.671875 4.25 -4.03125 C 4.109375 -4.203125 3.78125 -4.40625 3.203125 -4.40625 C 2.359375 -4.40625 1.921875 -3.8125 1.75 -3.421875 L 1.75 -6.921875 L 0.3125 -6.8125 L 0.3125 -6.5 C 1.015625 -6.5 1.09375 -6.4375 1.09375 -5.9375 Z M 1.09375 -0.75 "
           id="path5556" />
      </symbol>
      <symbol
         overflow="visible"
         id="symbol7970">
        <path
           style="stroke:none;"
           d="M 1.109375 -2.515625 C 1.171875 -4 2.015625 -4.25 2.359375 -4.25 C 3.375 -4.25 3.484375 -2.90625 3.484375 -2.515625 Z M 1.109375 -2.296875 L 3.890625 -2.296875 C 4.109375 -2.296875 4.140625 -2.296875 4.140625 -2.515625 C 4.140625 -3.5 3.59375 -4.46875 2.359375 -4.46875 C 1.203125 -4.46875 0.28125 -3.4375 0.28125 -2.1875 C 0.28125 -0.859375 1.328125 0.109375 2.46875 0.109375 C 3.6875 0.109375 4.140625 -1 4.140625 -1.1875 C 4.140625 -1.28125 4.0625 -1.3125 4 -1.3125 C 3.921875 -1.3125 3.890625 -1.25 3.875 -1.171875 C 3.53125 -0.140625 2.625 -0.140625 2.53125 -0.140625 C 2.03125 -0.140625 1.640625 -0.4375 1.40625 -0.8125 C 1.109375 -1.28125 1.109375 -1.9375 1.109375 -2.296875 Z M 1.109375 -2.296875 "
           id="path3805" />
      </symbol>
      <symbol
         overflow="visible"
         id="symbol1567">
        <path
           style="stroke:none;"
           d="M 1.671875 -3.3125 L 1.671875 -4.40625 L 0.28125 -4.296875 L 0.28125 -3.984375 C 0.984375 -3.984375 1.0625 -3.921875 1.0625 -3.421875 L 1.0625 -0.75 C 1.0625 -0.3125 0.953125 -0.3125 0.28125 -0.3125 L 0.28125 0 C 0.671875 -0.015625 1.140625 -0.03125 1.421875 -0.03125 C 1.8125 -0.03125 2.28125 -0.03125 2.6875 0 L 2.6875 -0.3125 L 2.46875 -0.3125 C 1.734375 -0.3125 1.71875 -0.421875 1.71875 -0.78125 L 1.71875 -2.3125 C 1.71875 -3.296875 2.140625 -4.1875 2.890625 -4.1875 C 2.953125 -4.1875 2.984375 -4.1875 3 -4.171875 C 2.96875 -4.171875 2.765625 -4.046875 2.765625 -3.78125 C 2.765625 -3.515625 2.984375 -3.359375 3.203125 -3.359375 C 3.375 -3.359375 3.625 -3.484375 3.625 -3.796875 C 3.625 -4.109375 3.3125 -4.40625 2.890625 -4.40625 C 2.15625 -4.40625 1.796875 -3.734375 1.671875 -3.3125 Z M 1.671875 -3.3125 "
           id="path3833" />
      </symbol>
      <symbol
         overflow="visible"
         id="symbol4582">
        <path
           style="stroke:none;"
           d="M 1.53125 -5.875 C 1.53125 -6.46875 1.28125 -6.921875 0.859375 -6.921875 C 0.515625 -6.921875 0.328125 -6.65625 0.328125 -6.390625 C 0.328125 -6.125 0.5 -5.859375 0.859375 -5.859375 C 1.0625 -5.859375 1.203125 -5.96875 1.25 -6.015625 C 1.265625 -6.046875 1.28125 -6.046875 1.28125 -6.046875 C 1.3125 -6.046875 1.3125 -5.90625 1.3125 -5.875 C 1.3125 -5.546875 1.234375 -4.828125 0.609375 -4.21875 C 0.484375 -4.09375 0.484375 -4.078125 0.484375 -4.046875 C 0.484375 -3.984375 0.53125 -3.9375 0.59375 -3.9375 C 0.703125 -3.9375 1.53125 -4.6875 1.53125 -5.875 Z M 3.453125 -5.875 C 3.453125 -6.46875 3.21875 -6.921875 2.796875 -6.921875 C 2.4375 -6.921875 2.265625 -6.65625 2.265625 -6.390625 C 2.265625 -6.125 2.4375 -5.859375 2.796875 -5.859375 C 2.984375 -5.859375 3.125 -5.96875 3.1875 -6.015625 C 3.203125 -6.046875 3.203125 -6.046875 3.21875 -6.046875 C 3.234375 -6.046875 3.234375 -5.90625 3.234375 -5.875 C 3.234375 -5.546875 3.171875 -4.828125 2.546875 -4.21875 C 2.421875 -4.09375 2.421875 -4.078125 2.421875 -4.046875 C 2.421875 -3.984375 2.46875 -3.9375 2.515625 -3.9375 C 2.625 -3.9375 3.453125 -4.6875 3.453125 -5.875 Z M 3.453125 -5.875 "
           id="path4948" />
      </symbol>
    </g>
    <g
       id="g250">
      <symbol
         overflow="visible"
         id="symbol3053">
        <path
           style="stroke:none;"
           d=""
           id="path5280" />
      </symbol>
      <symbol
         overflow="visible"
         id="symbol3331">
        <path
           style="stroke:none;"
           d="M 2.71875 -4.453125 C 2.71875 -4.71875 2.546875 -4.984375 2.1875 -4.984375 C 1.984375 -4.984375 1.84375 -4.890625 1.78125 -4.828125 C 1.78125 -4.8125 1.765625 -4.796875 1.75 -4.796875 C 1.734375 -4.796875 1.734375 -4.9375 1.734375 -4.96875 C 1.734375 -5.296875 1.796875 -6.015625 2.4375 -6.625 C 2.546875 -6.75 2.546875 -6.765625 2.546875 -6.796875 C 2.546875 -6.875 2.5 -6.90625 2.453125 -6.90625 C 2.34375 -6.90625 1.515625 -6.15625 1.515625 -4.96875 C 1.515625 -4.375 1.75 -3.921875 2.1875 -3.921875 C 2.53125 -3.921875 2.71875 -4.203125 2.71875 -4.453125 Z M 4.640625 -4.453125 C 4.640625 -4.71875 4.46875 -4.984375 4.109375 -4.984375 C 3.921875 -4.984375 3.78125 -4.890625 3.71875 -4.828125 C 3.703125 -4.8125 3.703125 -4.796875 3.6875 -4.796875 C 3.671875 -4.796875 3.671875 -4.9375 3.671875 -4.96875 C 3.671875 -5.296875 3.734375 -6.015625 4.359375 -6.625 C 4.484375 -6.75 4.484375 -6.765625 4.484375 -6.796875 C 4.484375 -6.875 4.4375 -6.90625 4.390625 -6.90625 C 4.28125 -6.90625 3.453125 -6.15625 3.453125 -4.96875 C 3.453125 -4.375 3.6875 -3.921875 4.109375 -3.921875 C 4.46875 -3.921875 4.640625 -4.203125 4.640625 -4.453125 Z M 4.640625 -4.453125 "
           id="path5381" />
      </symbol>
      <symbol
         overflow="visible"
         id="symbol8813">
        <path
           style="stroke:none;"
           d="M 2.265625 -3.15625 L 3.953125 -3.15625 C 5.140625 -3.15625 6.21875 -3.953125 6.21875 -4.953125 C 6.21875 -5.9375 5.234375 -6.8125 3.875 -6.8125 L 0.34375 -6.8125 L 0.34375 -6.5 L 0.59375 -6.5 C 1.359375 -6.5 1.375 -6.390625 1.375 -6.03125 L 1.375 -0.78125 C 1.375 -0.421875 1.359375 -0.3125 0.59375 -0.3125 L 0.34375 -0.3125 L 0.34375 0 C 0.703125 -0.03125 1.4375 -0.03125 1.8125 -0.03125 C 2.1875 -0.03125 2.9375 -0.03125 3.296875 0 L 3.296875 -0.3125 L 3.046875 -0.3125 C 2.28125 -0.3125 2.265625 -0.421875 2.265625 -0.78125 Z M 2.234375 -3.40625 L 2.234375 -6.09375 C 2.234375 -6.4375 2.25 -6.5 2.71875 -6.5 L 3.609375 -6.5 C 5.1875 -6.5 5.1875 -5.4375 5.1875 -4.953125 C 5.1875 -4.484375 5.1875 -3.40625 3.609375 -3.40625 Z M 2.234375 -3.40625 "
           id="path5995" />
      </symbol>
      <symbol
         overflow="visible"
         id="symbol3092">
        <path
           style="stroke:none;"
           d="M 3.890625 -0.78125 L 3.890625 0.109375 L 5.328125 0 L 5.328125 -0.3125 C 4.640625 -0.3125 4.5625 -0.375 4.5625 -0.875 L 4.5625 -4.40625 L 3.09375 -4.296875 L 3.09375 -3.984375 C 3.78125 -3.984375 3.875 -3.921875 3.875 -3.421875 L 3.875 -1.65625 C 3.875 -0.78125 3.390625 -0.109375 2.65625 -0.109375 C 1.828125 -0.109375 1.78125 -0.578125 1.78125 -1.09375 L 1.78125 -4.40625 L 0.3125 -4.296875 L 0.3125 -3.984375 C 1.09375 -3.984375 1.09375 -3.953125 1.09375 -3.078125 L 1.09375 -1.578125 C 1.09375 -0.796875 1.09375 0.109375 2.609375 0.109375 C 3.171875 0.109375 3.609375 -0.171875 3.890625 -0.78125 Z M 3.890625 -0.78125 "
           id="path4630" />
      </symbol>
      <symbol
         overflow="visible"
         id="symbol1840">
        <path
           style="stroke:none;"
           d="M 1.765625 -6.921875 L 0.328125 -6.8125 L 0.328125 -6.5 C 1.03125 -6.5 1.109375 -6.4375 1.109375 -5.9375 L 1.109375 -0.75 C 1.109375 -0.3125 1 -0.3125 0.328125 -0.3125 L 0.328125 0 C 0.65625 -0.015625 1.1875 -0.03125 1.4375 -0.03125 C 1.6875 -0.03125 2.171875 -0.015625 2.546875 0 L 2.546875 -0.3125 C 1.875 -0.3125 1.765625 -0.3125 1.765625 -0.75 Z M 1.765625 -6.921875 "
           id="path3466" />
      </symbol>
      <symbol
         overflow="visible"
         id="symbol4654">
        <path
           style="stroke:none;"
           d="M 1.109375 -2.515625 C 1.171875 -4 2.015625 -4.25 2.359375 -4.25 C 3.375 -4.25 3.484375 -2.90625 3.484375 -2.515625 Z M 1.109375 -2.296875 L 3.890625 -2.296875 C 4.109375 -2.296875 4.140625 -2.296875 4.140625 -2.515625 C 4.140625 -3.5 3.59375 -4.46875 2.359375 -4.46875 C 1.203125 -4.46875 0.28125 -3.4375 0.28125 -2.1875 C 0.28125 -0.859375 1.328125 0.109375 2.46875 0.109375 C 3.6875 0.109375 4.140625 -1 4.140625 -1.1875 C 4.140625 -1.28125 4.0625 -1.3125 4 -1.3125 C 3.921875 -1.3125 3.890625 -1.25 3.875 -1.171875 C 3.53125 -0.140625 2.625 -0.140625 2.53125 -0.140625 C 2.03125 -0.140625 1.640625 -0.4375 1.40625 -0.8125 C 1.109375 -1.28125 1.109375 -1.9375 1.109375 -2.296875 Z M 1.109375 -2.296875 "
           id="path2798" />
      </symbol>
      <symbol
         overflow="visible"
         id="symbol1211">
        <path
           style="stroke:none;"
           d="M 1.671875 -3.3125 L 1.671875 -4.40625 L 0.28125 -4.296875 L 0.28125 -3.984375 C 0.984375 -3.984375 1.0625 -3.921875 1.0625 -3.421875 L 1.0625 -0.75 C 1.0625 -0.3125 0.953125 -0.3125 0.28125 -0.3125 L 0.28125 0 C 0.671875 -0.015625 1.140625 -0.03125 1.421875 -0.03125 C 1.8125 -0.03125 2.28125 -0.03125 2.6875 0 L 2.6875 -0.3125 L 2.46875 -0.3125 C 1.734375 -0.3125 1.71875 -0.421875 1.71875 -0.78125 L 1.71875 -2.3125 C 1.71875 -3.296875 2.140625 -4.1875 2.890625 -4.1875 C 2.953125 -4.1875 2.984375 -4.1875 3 -4.171875 C 2.96875 -4.171875 2.765625 -4.046875 2.765625 -3.78125 C 2.765625 -3.515625 2.984375 -3.359375 3.203125 -3.359375 C 3.375 -3.359375 3.625 -3.484375 3.625 -3.796875 C 3.625 -4.109375 3.3125 -4.40625 2.890625 -4.40625 C 2.15625 -4.40625 1.796875 -3.734375 1.671875 -3.3125 Z M 1.671875 -3.3125 "
           id="path821" />
      </symbol>
      <symbol
         overflow="visible"
         id="symbol3451">
        <path
           style="stroke:none;"
           d="M 1.53125 -5.875 C 1.53125 -6.46875 1.28125 -6.921875 0.859375 -6.921875 C 0.515625 -6.921875 0.328125 -6.65625 0.328125 -6.390625 C 0.328125 -6.125 0.5 -5.859375 0.859375 -5.859375 C 1.0625 -5.859375 1.203125 -5.96875 1.25 -6.015625 C 1.265625 -6.046875 1.28125 -6.046875 1.28125 -6.046875 C 1.3125 -6.046875 1.3125 -5.90625 1.3125 -5.875 C 1.3125 -5.546875 1.234375 -4.828125 0.609375 -4.21875 C 0.484375 -4.09375 0.484375 -4.078125 0.484375 -4.046875 C 0.484375 -3.984375 0.53125 -3.9375 0.59375 -3.9375 C 0.703125 -3.9375 1.53125 -4.6875 1.53125 -5.875 Z M 3.453125 -5.875 C 3.453125 -6.46875 3.21875 -6.921875 2.796875 -6.921875 C 2.4375 -6.921875 2.265625 -6.65625 2.265625 -6.390625 C 2.265625 -6.125 2.4375 -5.859375 2.796875 -5.859375 C 2.984375 -5.859375 3.125 -5.96875 3.1875 -6.015625 C 3.203125 -6.046875 3.203125 -6.046875 3.21875 -6.046875 C 3.234375 -6.046875 3.234375 -5.90625 3.234375 -5.875 C 3.234375 -5.546875 3.171875 -4.828125 2.546875 -4.21875 C 2.421875 -4.09375 2.421875 -4.078125 2.421875 -4.046875 C 2.421875 -3.984375 2.46875 -3.9375 2.515625 -3.9375 C 2.625 -3.9375 3.453125 -4.6875 3.453125 -5.875 Z M 3.453125 -5.875 "
           id="path2655" />
      </symbol>
    </g>
  </defs>
  <g
     inkscape:label="Layer 1"
     inkscape:groupmode="layer"
     id="layer1">
    <ellipse
       style="opacity:0.950028;fill:#03007d;stroke-width:0.264999;paint-order:markers fill stroke;stroke:#000000;stroke-opacity:1;fill-opacity:0.68879145"
       id="path18941"
       cx="53.022663"
       cy="78.643105"
       rx="19.210022"
       ry="8.6729326"
       inkscape:export-filename="/home/mjohnsrud/repos/active_matter_notes/chapters/Figures/introduction/swimmers.png"
       inkscape:export-xdpi="1000"
       inkscape:export-ydpi="1000" />
    <path
       style="fill:none;stroke:#000000;stroke-width:0.597276;stroke-linecap:butt;stroke-linejoin:miter;stroke-miterlimit:4;stroke-dasharray:none;stroke-opacity:1"
       d="m 72.260353,78.7186 c 1.912193,-0.103656 5.865457,2.473508 5.919565,-0.550157 0.0758,-4.23563 -2.255035,-3.429852 -2.311785,0.200736 -0.04803,3.072929 1.384955,4.033834 3.675155,4.039544"
       id="path20710"
       sodipodi:nodetypes="cssc"
       inkscape:export-filename="/home/mjohnsrud/repos/active_matter_notes/chapters/Figures/introduction/swimmers.png"
       inkscape:export-xdpi="1000"
       inkscape:export-ydpi="1000" />
    <path
       style="fill:none;stroke:#000000;stroke-width:0.597276;stroke-linecap:butt;stroke-linejoin:miter;stroke-miterlimit:4;stroke-dasharray:none;stroke-opacity:1"
       d="m 79.543288,82.408723 c 2.751233,-0.09195 4.050672,-1.50632 3.763635,-4.702771 -0.287029,-3.196453 -2.705323,-3.652266 -3.147938,0.174404 -0.280014,2.420885 1.213127,4.726795 5.371509,4.546894"
       id="path28404"
       sodipodi:nodetypes="cssc"
       inkscape:export-filename="/home/mjohnsrud/repos/active_matter_notes/chapters/Figures/introduction/swimmers.png"
       inkscape:export-xdpi="1000"
       inkscape:export-ydpi="1000" />
    <path
       style="fill:none;stroke:#000000;stroke-width:0.597276;stroke-linecap:butt;stroke-linejoin:miter;stroke-miterlimit:4;stroke-dasharray:none;stroke-opacity:1"
       d="m 85.530494,82.42725 c 2.751233,-0.09195 4.050672,-1.50632 3.763635,-4.702771 -0.287029,-3.196453 -2.705323,-3.652266 -3.147938,0.174404 -0.280014,2.420885 1.213127,4.726795 5.371509,4.546894"
       id="path28404-6"
       sodipodi:nodetypes="cssc"
       inkscape:export-filename="/home/mjohnsrud/repos/active_matter_notes/chapters/Figures/introduction/swimmers.png"
       inkscape:export-xdpi="1000"
       inkscape:export-ydpi="1000" />
    <path
       style="fill:none;stroke:#000000;stroke-width:0.597276;stroke-linecap:butt;stroke-linejoin:miter;stroke-miterlimit:4;stroke-dasharray:none;stroke-opacity:1"
       d="m 91.5177,82.445777 c 2.751233,-0.09195 4.050672,-1.50632 3.763636,-4.702771 -0.28703,-3.196453 -2.705324,-3.652266 -3.147939,0.174404 -0.280014,2.420885 1.213127,4.726795 5.371509,4.546894"
       id="path28404-7"
       sodipodi:nodetypes="cssc"
       inkscape:export-filename="/home/mjohnsrud/repos/active_matter_notes/chapters/Figures/introduction/swimmers.png"
       inkscape:export-xdpi="1000"
       inkscape:export-ydpi="1000" />
    <path
       style="fill:none;stroke:#000000;stroke-width:0.597276;stroke-linecap:butt;stroke-linejoin:miter;stroke-miterlimit:4;stroke-dasharray:none;stroke-opacity:1"
       d="m 97.504906,82.464304 c 2.751224,-0.09195 4.050664,-1.50632 3.763634,-4.702771 -0.28702,-3.196453 -2.70532,-3.652266 -3.147937,0.174404 -0.280014,2.420885 1.213127,4.726795 5.371507,4.546894"
       id="path28404-3"
       sodipodi:nodetypes="cssc"
       inkscape:export-filename="/home/mjohnsrud/repos/active_matter_notes/chapters/Figures/introduction/swimmers.png"
       inkscape:export-xdpi="1000"
       inkscape:export-ydpi="1000" />
    <path
       style="fill:none;stroke:#000000;stroke-width:0.597276;stroke-linecap:butt;stroke-linejoin:miter;stroke-miterlimit:4;stroke-dasharray:none;stroke-opacity:1"
       d="m 103.49211,82.482831 c 2.75125,-0.09195 4.05068,-1.50632 3.76364,-4.702771 -0.28703,-3.196453 -2.70533,-3.652266 -3.14794,0.174404 -0.28002,2.420885 1.21312,4.726795 5.37152,4.546894"
       id="path28404-6-5"
       sodipodi:nodetypes="cssc"
       inkscape:export-filename="/home/mjohnsrud/repos/active_matter_notes/chapters/Figures/introduction/swimmers.png"
       inkscape:export-xdpi="1000"
       inkscape:export-ydpi="1000" />
    <path
       style="fill:none;stroke:#000000;stroke-width:0.597276;stroke-linecap:butt;stroke-linejoin:miter;stroke-miterlimit:4;stroke-dasharray:none;stroke-opacity:1"
       d="m 109.47933,82.501358 c 2.75123,-0.09195 4.05066,-1.50632 3.76362,-4.702771 -0.28703,-3.196453 -2.70532,-3.652266 -3.14794,0.174404 -0.28001,2.420885 1.21313,4.726795 5.3715,4.546894"
       id="path28404-7-3"
       sodipodi:nodetypes="cssc"
       inkscape:export-filename="/home/mjohnsrud/repos/active_matter_notes/chapters/Figures/introduction/swimmers.png"
       inkscape:export-xdpi="1000"
       inkscape:export-ydpi="1000" />
    <path
       style="fill:none;stroke:#000000;stroke-width:0.597276;stroke-linecap:butt;stroke-linejoin:miter;stroke-miterlimit:4;stroke-dasharray:none;stroke-opacity:1"
       d="m 115.46651,82.519885 c 2.75122,-0.09195 4.05065,-1.50632 3.76361,-4.702772 -0.28702,-3.196452 -2.70531,-3.652265 -3.14792,0.174405 -0.28002,2.420885 1.21311,4.726795 5.3715,4.546894"
       id="path28404-7-3-5"
       sodipodi:nodetypes="cssc"
       inkscape:export-filename="/home/mjohnsrud/repos/active_matter_notes/chapters/Figures/introduction/swimmers.png"
       inkscape:export-xdpi="1000"
       inkscape:export-ydpi="1000" />
    <path
       style="fill:none;stroke:#000000;stroke-width:0.597276;stroke-linecap:butt;stroke-linejoin:miter;stroke-miterlimit:4;stroke-dasharray:none;stroke-opacity:1"
       d="m 121.4537,82.538412 c 2.75123,-0.09195 4.05067,-1.50632 3.76362,-4.702772 -0.28702,-3.196452 -2.70532,-3.652265 -3.14794,0.174405 -0.28001,2.420885 1.21313,4.726795 5.37152,4.546894"
       id="path28404-7-3-9"
       sodipodi:nodetypes="cssc"
       inkscape:export-filename="/home/mjohnsrud/repos/active_matter_notes/chapters/Figures/introduction/swimmers.png"
       inkscape:export-xdpi="1000"
       inkscape:export-ydpi="1000" />
    <ellipse
       style="opacity:0.950028;fill:#03957d;fill-opacity:0.688791;stroke:#000000;stroke-width:0.195504;stroke-opacity:1;paint-order:markers fill stroke"
       id="path18941-5"
       cx="163.49484"
       cy="82.659073"
       rx="9.5148239"
       ry="9.5304432"
       inkscape:export-filename="/home/mjohnsrud/repos/active_matter_notes/chapters/Figures/introduction/swimmers.png"
       inkscape:export-xdpi="1000"
       inkscape:export-ydpi="1000" />
    <path
       style="fill:none;stroke:#000000;stroke-width:0.508448;stroke-linecap:butt;stroke-linejoin:miter;stroke-miterlimit:4;stroke-dasharray:none;stroke-opacity:1"
       d="m 166.93771,77.433471 c 4.65535,-8.350743 14.66061,-12.593286 17.39711,-3.65019"
       id="path33746"
       inkscape:export-filename="/home/mjohnsrud/repos/active_matter_notes/chapters/Figures/introduction/swimmers.png"
       inkscape:export-xdpi="1000"
       inkscape:export-ydpi="1000" />
    <path
       style="fill:none;stroke:#000000;stroke-width:0.289761;stroke-linecap:butt;stroke-linejoin:miter;stroke-miterlimit:4;stroke-dasharray:1.15904, 0.579522;stroke-dashoffset:0;stroke-opacity:1;marker-end:url(#Arrow1Mend)"
       d="m 175.32329,66.69701 c 3.97052,2.397926 5.81282,9.066139 5.81282,9.066139"
       id="path33888"
       inkscape:export-filename="/home/mjohnsrud/repos/active_matter_notes/chapters/Figures/introduction/swimmers.png"
       inkscape:export-xdpi="1000"
       inkscape:export-ydpi="1000" />
    <path
       style="fill:none;stroke:#000000;stroke-width:0.508448;stroke-linecap:butt;stroke-linejoin:miter;stroke-miterlimit:4;stroke-dasharray:none;stroke-opacity:1"
       d="M 160.37406,77.365389 C 155.71871,69.014645 145.71345,64.772103 142.97695,73.715198"
       id="path33746-2"
       inkscape:export-filename="/home/mjohnsrud/repos/active_matter_notes/chapters/Figures/introduction/swimmers.png"
       inkscape:export-xdpi="1000"
       inkscape:export-ydpi="1000" />
    <path
       style="fill:none;stroke:#000000;stroke-width:0.289761;stroke-linecap:butt;stroke-linejoin:miter;stroke-miterlimit:4;stroke-dasharray:1.15904, 0.579522;stroke-dashoffset:0;stroke-opacity:1;marker-end:url(#Arrow1Mend-0)"
       d="m 152.44094,66.736052 c -3.97052,2.397926 -5.81282,9.066139 -5.81282,9.066139"
       id="path33888-1"
       inkscape:export-filename="/home/mjohnsrud/repos/active_matter_notes/chapters/Figures/introduction/swimmers.png"
       inkscape:export-xdpi="1000"
       inkscape:export-ydpi="1000" />
    <path
       style="fill:none;stroke:#000000;stroke-width:0.289305px;stroke-linecap:butt;stroke-linejoin:miter;stroke-opacity:1;marker-end:url(#Arrow1Mend-0)"
       d="M 163.66565,75.980846 V 66.432297"
       id="path34179"
       inkscape:export-filename="/home/mjohnsrud/repos/active_matter_notes/chapters/Figures/introduction/swimmers.png"
       inkscape:export-xdpi="1000"
       inkscape:export-ydpi="1000" />
    <path
       style="fill:none;stroke:#000000;stroke-width:0.255885;stroke-linecap:butt;stroke-linejoin:miter;stroke-miterlimit:4;stroke-dasharray:1.02353999,0.51177;stroke-opacity:1;marker-end:url(#marker34816);stroke-dashoffset:0"
       d="m 96.505856,83.788581 c 3.348564,8.238578 5.805764,0.931619 5.782544,-5.112562 -0.0247,-6.428403 -3.72119,-12.143057 -5.995127,-4.670458"
       id="path34401"
       sodipodi:nodetypes="csc"
       inkscape:export-filename="/home/mjohnsrud/repos/active_matter_notes/chapters/Figures/introduction/swimmers.png"
       inkscape:export-xdpi="1000"
       inkscape:export-ydpi="1000" />
    <path
       style="fill:none;stroke:#000000;stroke-width:0.282909px;stroke-linecap:butt;stroke-linejoin:miter;stroke-opacity:1;marker-end:url(#Arrow1Mend-0-2)"
       d="M 37.18078,78.631225 H 27.299625"
       id="path34179-6"
       inkscape:export-filename="/home/mjohnsrud/repos/active_matter_notes/chapters/Figures/introduction/swimmers.png"
       inkscape:export-xdpi="1000"
       inkscape:export-ydpi="1000" />
    <path
       style="fill:none;stroke:#000000;stroke-width:0.26458299;stroke-linecap:butt;stroke-linejoin:miter;stroke-opacity:1;marker-end:url(#Arrow1Mend-0-2);stroke-miterlimit:4;stroke-dasharray:1.05833194,0.52916597;stroke-dashoffset:0"
       d="m 114.85281,78.826004 h 15.84118"
       id="path1253"
       inkscape:export-filename="/home/mjohnsrud/repos/active_matter_notes/chapters/Figures/introduction/swimmers.png"
       inkscape:export-xdpi="1000"
       inkscape:export-ydpi="1000" />
    <g
       inkscape:label=""
       transform="matrix(0.69282988,0,0,0.69282988,-5.2620592,43.123475)"
       id="g1356"
       inkscape:export-filename="/home/mjohnsrud/repos/active_matter_notes/chapters/Figures/introduction/swimmers.png"
       inkscape:export-xdpi="1000"
       inkscape:export-ydpi="1000">
      <g
         id="g3321">
        <g
           style="fill:#000000;fill-opacity:1"
           id="g8826">
          <use
             xlink:href="#symbol3535"
             x="91.925003"
             y="81.962997"
             id="use8420"
             width="100%"
             height="100%" />
          <use
             xlink:href="#symbol9687"
             x="96.906303"
             y="81.962997"
             id="use1519"
             width="100%"
             height="100%" />
          <use
             xlink:href="#symbol4094"
             x="103.68684"
             y="81.962997"
             id="use3791"
             width="100%"
             height="100%" />
          <use
             xlink:href="#symbol1149"
             x="109.22207"
             y="81.962997"
             id="use8627"
             width="100%"
             height="100%" />
          <use
             xlink:href="#symbol2878"
             x="113.15131"
             y="81.962997"
             id="use3742"
             width="100%"
             height="100%" />
          <use
             xlink:href="#symbol7970"
             x="118.68654"
             y="81.962997"
             id="use8264"
             width="100%"
             height="100%" />
          <use
             xlink:href="#symbol1567"
             x="123.11391"
             y="81.962997"
             id="use8115"
             width="100%"
             height="100%" />
          <use
             xlink:href="#symbol4582"
             x="127.01627"
             y="81.962997"
             id="use3664"
             width="100%"
             height="100%" />
        </g>
      </g>
    </g>
    <g
       inkscape:label=""
       transform="matrix(0.69282988,0,0,0.69282988,88.975293,43.855644)"
       id="g1662"
       inkscape:export-filename="/home/mjohnsrud/repos/active_matter_notes/chapters/Figures/introduction/swimmers.png"
       inkscape:export-xdpi="1000"
       inkscape:export-ydpi="1000">
      <g
         id="g1887">
        <g
           style="fill:#000000;fill-opacity:1"
           id="g7771">
          <use
             xlink:href="#symbol3331"
             x="91.925003"
             y="81.962997"
             id="use5925"
             width="100%"
             height="100%" />
          <use
             xlink:href="#symbol8813"
             x="96.906303"
             y="81.962997"
             id="use4529"
             width="100%"
             height="100%" />
          <use
             xlink:href="#symbol3092"
             x="103.68684"
             y="81.962997"
             id="use5523"
             width="100%"
             height="100%" />
          <use
             xlink:href="#symbol1840"
             x="109.22207"
             y="81.962997"
             id="use2494"
             width="100%"
             height="100%" />
          <use
             xlink:href="#symbol1840"
             x="111.98968"
             y="81.962997"
             id="use6051"
             width="100%"
             height="100%" />
          <use
             xlink:href="#symbol4654"
             x="114.75729"
             y="81.962997"
             id="use1631"
             width="100%"
             height="100%" />
          <use
             xlink:href="#symbol1211"
             x="119.18467"
             y="81.962997"
             id="use1478"
             width="100%"
             height="100%" />
          <use
             xlink:href="#symbol3451"
             x="123.08701"
             y="81.962997"
             id="use4769"
             width="100%"
             height="100%" />
        </g>
      </g>
    </g>
  </g>
</svg>
